<svg xmlns="http://www.w3.org/2000/svg" viewBox="0 0 100 100" width="64" height="64">
  <defs>
    <linearGradient id="bg" x1="0%" y1="0%" x2="100%" y2="100%">
      <stop offset="0%" style="stop-color:#10a37f"/>
      <stop offset="100%" style="stop-color:#0d8a6c"/>
    </linearGradient>
  </defs>
  <rect width="100" height="100" rx="20" fill="url(#bg)"/>
  <g fill="white">
    <!-- Chat bubble -->
    <path d="M25 35 h50 a10 10 0 0 1 10 10 v25 a10 10 0 0 1 -10 10 h-35 l-15 12 v-12 a10 10 0 0 1 -10 -10 v-25 a10 10 0 0 1 10 -10 z" fill="white" opacity="0.9"/>
    <!-- Document icon -->
    <rect x="35" y="42" width="30" height="4" rx="2" fill="#10a37f"/>
    <rect x="35" y="50" width="25" height="4" rx="2" fill="#10a37f"/>
    <rect x="35" y="58" width="20" height="4" rx="2" fill="#10a37f"/>
  </g>
</svg>
